<svg width="1920" height="726" viewBox="0 0 1920 726" fill="none" xmlns="http://www.w3.org/2000/svg">
<path d="M-263.342 719.417V5.82255L70.0265 127.92V597.32L69.1337 597.645L-263.342 719.417ZM-258.875 10.1685V715.071L65.5592 596.241V128.999L-258.875 10.1685Z" fill="#FF8049" fill-opacity="0.5"/>
<path d="M31.6629 114.406H27.1956V610.831H31.6629V114.406Z" fill="#FF8049" fill-opacity="0.5"/>
<path d="M66.5223 553.208L-262.19 651.918L-259.837 653.763L68.8754 555.053L66.5223 553.208Z" fill="#FF8049" fill-opacity="0.5"/>
<path d="M-260.139 589.265L-262.077 587.313L66.8232 510.654L68.7626 512.605L-260.139 589.265Z" fill="#FF8049" fill-opacity="0.5"/>
<path d="M-260.389 524.835L-261.827 522.788L67.0745 468.031L68.5127 470.077L-260.389 524.835Z" fill="#FF8049" fill-opacity="0.5"/>
<path d="M-260.661 460.394L-261.554 458.273L67.3468 425.422L68.2402 427.542L-260.661 460.394Z" fill="#FF8049" fill-opacity="0.5"/>
<path d="M67.6413 382.827L-261.261 393.773L-260.955 395.936L67.9469 384.989L67.6413 382.827Z" fill="#FF8049" fill-opacity="0.5"/>
<path d="M-260.955 329.3L-261.261 331.463L67.6407 342.412L67.9465 340.25L-260.955 329.3Z" fill="#FF8049" fill-opacity="0.5"/>
<path d="M67.3468 299.816L-261.554 266.964L-260.661 264.843L68.2402 297.696L67.3468 299.816Z" fill="#FF8049" fill-opacity="0.5"/>
<path d="M67.0745 257.206L-261.827 202.449L-260.389 200.403L68.5127 255.16L67.0745 257.206Z" fill="#FF8049" fill-opacity="0.5"/>
<path d="M66.8232 214.583L-262.077 137.924L-260.139 135.972L68.7626 212.632L66.8232 214.583Z" fill="#FF8049" fill-opacity="0.5"/>
<path d="M-259.933 71.5475L-262.283 73.3939L66.618 171.955L68.9678 170.109L-259.933 71.5475Z" fill="#FF8049" fill-opacity="0.5"/>
<path d="M198.521 719.883V5.35707L202.345 7.23414L447.916 128.015V597.225L447.273 597.542L198.521 719.883ZM202.988 10.6342V714.606L443.449 596.336V128.904L202.988 10.6342Z" fill="#FF8049" fill-opacity="0.5"/>
<path d="M259.93 35.9995H255.462V689.238H259.93V35.9995Z" fill="#FF8049" fill-opacity="0.5"/>
<path d="M308.536 59.9054H304.069V665.332H308.536V59.9054Z" fill="#FF8049" fill-opacity="0.5"/>
<path d="M350.507 80.5495H346.039V644.688H350.507V80.5495Z" fill="#FF8049" fill-opacity="0.5"/>
<path d="M387.128 98.5581H382.66V626.68H387.128V98.5581Z" fill="#FF8049" fill-opacity="0.5"/>
<path d="M419.346 114.406H414.879V610.832H419.346V114.406Z" fill="#FF8049" fill-opacity="0.5"/>
<path d="M202.183 653.6L199.327 651.934L444.254 553.373L447.109 555.038L202.183 653.6Z" fill="#FF8049" fill-opacity="0.5"/>
<path d="M444.46 510.71L199.559 587.39L201.978 589.209L446.879 512.529L444.46 510.71Z" fill="#FF8049" fill-opacity="0.5"/>
<path d="M201.692 524.795L199.818 522.828L444.745 468.071L446.619 470.038L201.692 524.795Z" fill="#FF8049" fill-opacity="0.5"/>
<path d="M201.354 460.378L200.155 458.29L445.083 425.438L446.282 427.526L201.354 460.378Z" fill="#FF8049" fill-opacity="0.5"/>
<path d="M445.464 382.771L200.558 393.835L200.972 395.992L445.878 384.928L445.464 382.771Z" fill="#FF8049" fill-opacity="0.5"/>
<path d="M200.96 329.303L200.55 331.46L445.477 342.41L445.887 340.252L200.96 329.303Z" fill="#FF8049" fill-opacity="0.5"/>
<path d="M445.083 299.8L200.155 266.948L201.354 264.859L446.282 297.712L445.083 299.8Z" fill="#FF8049" fill-opacity="0.5"/>
<path d="M444.745 257.167L199.818 202.409L201.692 200.443L446.619 255.2L444.745 257.167Z" fill="#FF8049" fill-opacity="0.5"/>
<path d="M201.963 136.039L199.545 137.858L444.473 214.517L446.891 212.698L201.963 136.039Z" fill="#FF8049" fill-opacity="0.5"/>
<path d="M444.254 171.865L199.327 73.3033L202.183 71.6379L447.109 170.2L444.254 171.865Z" fill="#FF8049" fill-opacity="0.5"/>
<path d="M565.917 721.12V4.11985L720.834 128.158V597.081L720.507 597.341L565.917 721.12ZM570.384 11.8712V713.368L716.367 596.479V128.761L570.384 11.8712Z" fill="#FF8049" fill-opacity="0.5"/>
<path d="M605.359 35.9993H600.892V689.238H605.359V35.9993Z" fill="#FF8049" fill-opacity="0.5"/>
<path d="M635.214 59.9051H630.747V665.332H635.214V59.9051Z" fill="#FF8049" fill-opacity="0.5"/>
<path d="M661.005 80.5492H656.537V644.688H661.005V80.5492Z" fill="#FF8049" fill-opacity="0.5"/>
<path d="M683.494 98.5576H679.026V626.679H683.494V98.5576Z" fill="#FF8049" fill-opacity="0.5"/>
<path d="M703.291 114.406H698.824V610.831H703.291V114.406Z" fill="#FF8049" fill-opacity="0.5"/>
<path d="M716.714 553.528L566.44 652.153L570.036 653.443L720.309 554.818L716.714 553.528Z" fill="#FF8049" fill-opacity="0.5"/>
<path d="M716.997 510.888L566.53 587.539L569.755 589.03L720.223 512.379L716.997 510.888Z" fill="#FF8049" fill-opacity="0.5"/>
<path d="M717.254 468.183L566.818 522.949L569.499 524.683L719.935 469.917L717.254 468.183Z" fill="#FF8049" fill-opacity="0.5"/>
<path d="M717.703 425.513L567.218 458.325L569.049 460.303L719.534 427.49L717.703 425.513Z" fill="#FF8049" fill-opacity="0.5"/>
<path d="M568.477 395.927L567.824 393.785L718.273 382.835L718.927 384.977L568.477 395.927Z" fill="#FF8049" fill-opacity="0.5"/>
<path d="M718.273 342.402L567.824 331.452L568.477 329.31L718.927 340.26L718.273 342.402Z" fill="#FF8049" fill-opacity="0.5"/>
<path d="M569.067 264.915L567.234 266.892L717.683 299.744L719.516 297.767L569.067 264.915Z" fill="#FF8049" fill-opacity="0.5"/>
<path d="M569.491 200.559L566.81 202.293L717.26 257.05L719.941 255.315L569.491 200.559Z" fill="#FF8049" fill-opacity="0.5"/>
<path d="M569.764 136.203L566.538 137.693L716.987 214.353L720.213 212.862L569.764 136.203Z" fill="#FF8049" fill-opacity="0.5"/>
<path d="M569.948 71.8248L566.354 73.1164L716.804 171.678L720.397 170.386L569.948 71.8248Z" fill="#FF8049" fill-opacity="0.5"/>
<path d="M831.84 725.077V0.162659L906.281 128.459L906.194 597.073L831.84 725.077ZM836.308 15.8284V709.411L901.813 596.629V128.61L836.308 15.8284Z" fill="#FF8049" fill-opacity="0.5"/>
<path d="M852.575 35.9993H848.107V689.238H852.575V35.9993Z" fill="#FF8049" fill-opacity="0.5"/>
<path d="M866.456 59.9051H861.989V665.332H866.456V59.9051Z" fill="#FF8049" fill-opacity="0.5"/>
<path d="M878.452 80.5492H873.985V644.688H878.452V80.5492Z" fill="#FF8049" fill-opacity="0.5"/>
<path d="M888.912 98.5576H884.445V626.679H888.912V98.5576Z" fill="#FF8049" fill-opacity="0.5"/>
<path d="M898.119 114.406H893.652V610.831H898.119V114.406Z" fill="#FF8049" fill-opacity="0.5"/>
<path d="M836.187 653.118L831.96 652.415L901.933 553.853L906.16 554.556L836.187 653.118Z" fill="#FF8049" fill-opacity="0.5"/>
<path d="M902.07 511.204L831.976 587.837L836.051 588.714L906.145 512.081L902.07 511.204Z" fill="#FF8049" fill-opacity="0.5"/>
<path d="M902.186 468.494L832.144 523.23L835.935 524.372L905.977 469.636L902.186 468.494Z" fill="#FF8049" fill-opacity="0.5"/>
<path d="M902.529 425.719L832.498 458.542L835.592 460.096L905.623 427.273L902.529 425.719Z" fill="#FF8049" fill-opacity="0.5"/>
<path d="M903.357 382.869L833.393 393.832L834.765 395.894L904.729 384.931L903.357 382.869Z" fill="#FF8049" fill-opacity="0.5"/>
<path d="M834.759 329.35L833.388 331.412L903.362 342.362L904.732 340.3L834.759 329.35Z" fill="#FF8049" fill-opacity="0.5"/>
<path d="M835.623 265.126L832.526 266.68L902.499 299.532L905.596 297.979L835.623 265.126Z" fill="#FF8049" fill-opacity="0.5"/>
<path d="M835.97 200.855L832.178 201.996L902.151 256.753L905.944 255.612L835.97 200.855Z" fill="#FF8049" fill-opacity="0.5"/>
<path d="M836.112 136.51L832.036 137.386L902.009 214.046L906.085 213.169L836.112 136.51Z" fill="#FF8049" fill-opacity="0.5"/>
<path d="M901.933 171.384L831.96 72.8222L836.187 72.1189L906.16 170.681L901.933 171.384Z" fill="#FF8049" fill-opacity="0.5"/>
<path d="M2184.58 719.417L1851.21 597.32V127.92L1852.1 127.595L2184.58 5.82255V719.417ZM1855.68 596.241L2180.11 715.071V10.1685L1855.68 128.999V596.241Z" fill="#FF8049" fill-opacity="0.5"/>
<path d="M1894.04 114.406H1889.57V610.831H1894.04V114.406Z" fill="#FF8049" fill-opacity="0.5"/>
<path d="M2181.05 71.457L1852.38 170.201L1854.74 172.046L2183.41 73.3022L2181.05 71.457Z" fill="#FF8049" fill-opacity="0.5"/>
<path d="M1854.41 214.583L1852.47 212.632L2181.37 135.972L2183.31 137.924L1854.41 214.583Z" fill="#FF8049" fill-opacity="0.5"/>
<path d="M1854.16 257.206L1852.72 255.16L2181.63 200.403L2183.06 202.449L1854.16 257.206Z" fill="#FF8049" fill-opacity="0.5"/>
<path d="M1853.89 299.816L1853 297.696L2181.9 264.843L2182.79 266.964L1853.89 299.816Z" fill="#FF8049" fill-opacity="0.5"/>
<path d="M2182.19 329.304L1853.29 340.245L1853.6 342.408L2182.5 331.466L2182.19 329.304Z" fill="#FF8049" fill-opacity="0.5"/>
<path d="M1853.6 382.825L1853.29 384.988L2182.19 395.938L2182.5 393.775L1853.6 382.825Z" fill="#FF8049" fill-opacity="0.5"/>
<path d="M2181.9 460.394L1853 427.542L1853.89 425.422L2182.79 458.273L2181.9 460.394Z" fill="#FF8049" fill-opacity="0.5"/>
<path d="M2181.63 524.835L1852.72 470.077L1854.16 468.031L2183.06 522.788L2181.63 524.835Z" fill="#FF8049" fill-opacity="0.5"/>
<path d="M2181.37 589.265L1852.47 512.605L1854.41 510.654L2183.31 587.313L2181.37 589.265Z" fill="#FF8049" fill-opacity="0.5"/>
<path d="M1854.62 553.282L1852.27 555.128L2181.17 653.69L2183.52 651.844L1854.62 553.282Z" fill="#FF8049" fill-opacity="0.5"/>
<path d="M1722.71 719.883L1718.89 718.006L1473.32 597.225V128.015L1473.96 127.698L1722.71 5.35707V719.883ZM1477.79 596.336L1718.25 714.606V10.6342L1477.79 128.904V596.336Z" fill="#FF8049" fill-opacity="0.5"/>
<path d="M1665.77 35.9995H1661.31V689.238H1665.77V35.9995Z" fill="#FF8049" fill-opacity="0.5"/>
<path d="M1617.17 59.9054H1612.7V665.332H1617.17V59.9054Z" fill="#FF8049" fill-opacity="0.5"/>
<path d="M1575.2 80.5495H1570.73V644.688H1575.2V80.5495Z" fill="#FF8049" fill-opacity="0.5"/>
<path d="M1538.58 98.5581H1534.11V626.68H1538.58V98.5581Z" fill="#FF8049" fill-opacity="0.5"/>
<path d="M1506.36 114.406H1501.89V610.832H1506.36V114.406Z" fill="#FF8049" fill-opacity="0.5"/>
<path d="M1476.98 171.865L1474.13 170.2L1719.06 71.6379L1721.91 73.3033L1476.98 171.865Z" fill="#FF8049" fill-opacity="0.5"/>
<path d="M1719.26 136.027L1474.36 212.711L1476.78 214.53L1721.67 137.846L1719.26 136.027Z" fill="#FF8049" fill-opacity="0.5"/>
<path d="M1476.49 257.167L1474.62 255.2L1719.54 200.443L1721.42 202.409L1476.49 257.167Z" fill="#FF8049" fill-opacity="0.5"/>
<path d="M1476.15 299.8L1474.96 297.712L1719.88 264.859L1721.08 266.948L1476.15 299.8Z" fill="#FF8049" fill-opacity="0.5"/>
<path d="M1720.26 329.247L1475.36 340.308L1475.77 342.466L1720.68 331.404L1720.26 329.247Z" fill="#FF8049" fill-opacity="0.5"/>
<path d="M1475.76 382.828L1475.35 384.985L1720.28 395.935L1720.69 393.778L1475.76 382.828Z" fill="#FF8049" fill-opacity="0.5"/>
<path d="M1719.88 460.378L1474.96 427.526L1476.15 425.438L1721.08 458.29L1719.88 460.378Z" fill="#FF8049" fill-opacity="0.5"/>
<path d="M1719.54 524.795L1474.62 470.038L1476.49 468.071L1721.42 522.828L1719.54 524.795Z" fill="#FF8049" fill-opacity="0.5"/>
<path d="M1476.76 510.72L1474.35 512.539L1719.27 589.199L1721.69 587.379L1476.76 510.72Z" fill="#FF8049" fill-opacity="0.5"/>
<path d="M1719.06 653.6L1474.13 555.038L1476.98 553.373L1721.91 651.934L1719.06 653.6Z" fill="#FF8049" fill-opacity="0.5"/>
<path d="M1355.32 721.12L1200.39 597.081V128.158L1200.72 127.899L1355.32 4.11985V721.12ZM1204.86 596.479L1350.85 713.368V11.8712L1204.86 128.761V596.479Z" fill="#FF8049" fill-opacity="0.5"/>
<path d="M1320.34 35.9993H1315.88V689.238H1320.34V35.9993Z" fill="#FF8049" fill-opacity="0.5"/>
<path d="M1290.49 59.9051H1286.02V665.332H1290.49V59.9051Z" fill="#FF8049" fill-opacity="0.5"/>
<path d="M1264.7 80.5492H1260.23V644.688H1264.7V80.5492Z" fill="#FF8049" fill-opacity="0.5"/>
<path d="M1242.21 98.5576H1237.74V626.679H1242.21V98.5576Z" fill="#FF8049" fill-opacity="0.5"/>
<path d="M1222.41 114.406H1217.94V610.831H1222.41V114.406Z" fill="#FF8049" fill-opacity="0.5"/>
<path d="M1351.2 71.7925L1200.92 170.42L1204.51 171.71L1354.79 73.0826L1351.2 71.7925Z" fill="#FF8049" fill-opacity="0.5"/>
<path d="M1351.48 136.207L1201 212.858L1204.23 214.349L1354.71 137.697L1351.48 136.207Z" fill="#FF8049" fill-opacity="0.5"/>
<path d="M1351.74 200.553L1201.29 255.322L1203.97 257.056L1354.42 202.287L1351.74 200.553Z" fill="#FF8049" fill-opacity="0.5"/>
<path d="M1352.19 264.937L1201.69 297.745L1203.52 299.722L1354.02 266.915L1352.19 264.937Z" fill="#FF8049" fill-opacity="0.5"/>
<path d="M1202.95 342.402L1202.3 340.26L1352.76 329.31L1353.41 331.452L1202.95 342.402Z" fill="#FF8049" fill-opacity="0.5"/>
<path d="M1352.76 395.927L1202.3 384.977L1202.95 382.835L1353.41 393.785L1352.76 395.927Z" fill="#FF8049" fill-opacity="0.5"/>
<path d="M1203.54 425.493L1201.71 427.47L1352.17 460.322L1354 458.345L1203.54 425.493Z" fill="#FF8049" fill-opacity="0.5"/>
<path d="M1203.97 468.187L1201.29 469.921L1351.75 524.679L1354.43 522.944L1203.97 468.187Z" fill="#FF8049" fill-opacity="0.5"/>
<path d="M1204.24 510.884L1201.01 512.375L1351.47 589.034L1354.7 587.543L1204.24 510.884Z" fill="#FF8049" fill-opacity="0.5"/>
<path d="M1204.42 553.559L1200.83 554.851L1351.29 653.412L1354.88 652.121L1204.42 553.559Z" fill="#FF8049" fill-opacity="0.5"/>
<path d="M1089.4 725.077L1014.94 596.78L1015.03 128.166L1089.4 0.162659V725.077ZM1019.41 596.629L1084.93 709.411V15.8284L1019.41 128.61V596.629Z" fill="#FF8049" fill-opacity="0.5"/>
<path d="M1073.13 35.9993H1068.66V689.238H1073.13V35.9993Z" fill="#FF8049" fill-opacity="0.5"/>
<path d="M1059.24 59.9051H1054.77V665.332H1059.24V59.9051Z" fill="#FF8049" fill-opacity="0.5"/>
<path d="M1047.25 80.5492H1042.78V644.688H1047.25V80.5492Z" fill="#FF8049" fill-opacity="0.5"/>
<path d="M1036.79 98.5576H1032.32V626.679H1036.79V98.5576Z" fill="#FF8049" fill-opacity="0.5"/>
<path d="M1027.58 114.406H1023.12V610.831H1027.58V114.406Z" fill="#FF8049" fill-opacity="0.5"/>
<path d="M1019.29 171.384L1015.06 170.681L1085.05 72.1189L1089.28 72.8222L1019.29 171.384Z" fill="#FF8049" fill-opacity="0.5"/>
<path d="M1085.19 136.524L1015.07 213.154L1019.15 214.032L1089.27 137.402L1085.19 136.524Z" fill="#FF8049" fill-opacity="0.5"/>
<path d="M1085.28 200.858L1015.27 255.608L1019.06 256.75L1089.07 202L1085.28 200.858Z" fill="#FF8049" fill-opacity="0.5"/>
<path d="M1085.64 265.139L1015.6 297.965L1018.7 299.519L1088.73 266.694L1085.64 265.139Z" fill="#FF8049" fill-opacity="0.5"/>
<path d="M1086.47 329.339L1016.5 340.31L1017.87 342.372L1087.84 331.401L1086.47 329.339Z" fill="#FF8049" fill-opacity="0.5"/>
<path d="M1017.86 382.875L1016.49 384.937L1086.47 395.887L1087.85 393.825L1017.86 382.875Z" fill="#FF8049" fill-opacity="0.5"/>
<path d="M1018.73 425.705L1015.63 427.258L1085.61 460.111L1088.71 458.557L1018.73 425.705Z" fill="#FF8049" fill-opacity="0.5"/>
<path d="M1019.07 468.483L1015.28 469.625L1085.27 524.382L1089.06 523.24L1019.07 468.483Z" fill="#FF8049" fill-opacity="0.5"/>
<path d="M1019.22 511.191L1015.14 512.067L1085.12 588.726L1089.2 587.85L1019.22 511.191Z" fill="#FF8049" fill-opacity="0.5"/>
<path d="M1085.05 653.118L1015.06 554.556L1019.29 553.853L1089.28 652.415L1085.05 653.118Z" fill="#FF8049" fill-opacity="0.5"/>
</svg>
