<svg width="977" height="1121" viewBox="0 0 977 1121" fill="none" xmlns="http://www.w3.org/2000/svg">
<path d="M1090.47 393.199C1090.66 393.104 1090.84 393.003 1091.03 392.908L1089.75 390.319C1089.65 390.367 1089.56 390.418 1089.46 390.466C1060.84 311.299 1013.01 236.077 949.141 172.168C840.351 63.3001 698.687 0.86615 560.456 0.86615H560.425C418.708 0.877178 276 62.4276 168.892 169.736C61.9474 276.88 0.631393 419.354 0.663098 560.628C0.698939 716.044 57.477 858.283 160.544 961.145C263.43 1063.83 405.445 1120.38 560.425 1120.39H560.46C874.244 1120.39 1120.11 874.513 1120.19 560.628C1120.2 504.591 1109.94 447.972 1090.47 393.199ZM1086.87 391.79C1070.05 400.29 1053.69 409.644 1037.75 419.726C1010.5 348.451 964.825 279.407 903.803 219.304C887.859 203.602 871.198 188.907 853.991 175.281C864.585 157.241 875.348 139.33 886.348 121.617L883.893 120.092C872.945 137.72 862.232 155.544 851.688 173.491C761.377 102.672 656.27 61.4364 560.181 60.7141C561.082 41.7297 561.644 22.7467 561.842 3.77749C698.865 4.19241 839.214 66.2528 947.098 174.211C1010.75 237.913 1058.41 312.894 1086.87 391.79ZM76.58 426.279C89.7747 437.397 102.825 450.233 115.408 464.496C100.419 507.087 92.5221 550.684 92.5772 593.537C92.6475 647.661 101.512 700.008 118.433 748.884C105.844 744.322 92.6048 740.749 78.4947 738.393C61.1093 686.052 51.7164 629.39 51.6709 569.68C51.6337 521.899 60.2491 473.46 76.58 426.279ZM557.495 1075.79C556.096 1066.22 554.119 1058.39 550.553 1051.78C550.644 1051.78 550.735 1051.79 550.826 1051.79H551.349C637.242 1051.78 720.075 1027.31 792.237 981.591C805.865 985.073 818.734 989.536 831.464 995.138C750.484 1047.63 656.349 1075.8 558.111 1075.8H557.787C557.689 1075.8 557.593 1075.79 557.495 1075.79ZM117.59 467C129.702 480.922 141.481 496.183 153.52 513.584C140.027 551.605 132.939 590.551 133.022 628.896C133.124 676.751 141.341 723.258 157.011 766.849C145.967 760.549 134.508 754.991 122.443 750.365C105.033 701.666 95.5395 648.899 95.4679 593.534C95.4141 551.526 103.062 508.791 117.59 467ZM155.487 516.44C166.37 532.247 177.36 549.663 189.017 569.598C177.238 603.335 171.032 638.078 171.073 672.453C171.121 713.329 178.193 752.648 191.109 789.3C181.547 782.199 171.789 775.58 161.698 769.573C145.144 725.701 136.017 678.298 135.912 628.891C135.831 590.883 142.787 552.971 155.487 516.44ZM190.909 572.862C202.145 592.105 212.859 611.621 222.792 629.952C212.913 659.514 207.692 690.229 207.694 720.912C207.697 752.852 212.876 784.532 222.67 814.729C213.62 806.955 204.537 799.484 195.293 792.447C181.547 754.933 174.013 714.519 173.964 672.451C173.923 638.592 179.927 605.042 190.909 572.862ZM816.767 720.912C816.752 754.008 810.972 786.122 800.391 816.299C795.017 819.042 789.676 821.778 784.38 824.492L771.105 831.291C761.926 835.981 752.3 841.149 742.322 846.576C750.173 822.29 754.292 796.872 754.301 770.973C754.311 744.446 749.973 718.412 741.738 693.567C752.236 682.348 762.549 671.476 772.794 661.063C782.264 651.436 791.779 641.676 801.349 631.859C811.308 660.445 816.781 690.444 816.767 720.912ZM258.578 697.004L262.418 704.513C271.429 722.141 280.748 740.365 290.691 758.725C284.122 778.078 280.502 798.47 280.501 819.333C280.499 837.465 283.5 855.715 289.129 873.497C279.14 865.137 269.181 856.254 259.023 847.093C251.086 822.958 246.754 797.363 246.741 770.972C246.728 745.956 250.835 720.991 258.578 697.004ZM499.075 518.637C550.98 518.637 602.732 536.228 645.823 567.725C637.15 585.704 628.558 603.722 620.125 621.426C614.812 632.582 609.47 643.782 604.102 654.998C568.841 628.798 526.735 614.417 484.955 614.863C484.373 614.87 483.8 614.917 483.22 614.929C488.153 582.679 493.412 550.564 498.785 518.646C498.882 518.646 498.978 518.637 499.075 518.637ZM292.563 762.162C304.325 783.752 315.278 802.191 325.96 818.365C321.104 832.882 318.562 847.844 318.61 862.696C318.65 875.099 320.719 887.698 324.569 900.138C314.028 893.287 303.794 885.549 293.628 877.222C287.042 858.523 283.39 839.013 283.392 819.333C283.393 799.692 286.632 780.468 292.563 762.162ZM328.017 821.449C340.019 839.419 351.823 854.833 364.017 868.429C360.816 877.873 359.085 887.748 359.142 897.757C359.184 905.279 360.272 912.617 362.187 919.701C350.468 915.16 339.343 909.386 328.57 902.667C324.015 889.303 321.542 875.775 321.501 862.687C321.457 848.886 323.722 834.988 328.017 821.449ZM366.252 870.882C378.81 884.638 391.92 896.501 405.276 906.169C403.811 910.989 403.053 916.043 403.056 921.205C403.058 924.129 403.399 927.014 403.943 929.855C390.319 928.41 377.594 925.356 365.528 920.968C363.328 913.499 362.078 905.725 362.032 897.741C361.981 888.59 363.485 879.561 366.252 870.882ZM525.759 971.992C513.705 968.705 502.477 964.062 491.525 957.85C491.571 957.805 491.621 957.766 491.668 957.721C497.051 952.338 501.152 946.002 503.844 939.268C503.949 939.268 504.051 939.274 504.156 939.274C520.616 939.274 537.38 937.125 554.236 933.381C548.699 945.949 540.414 957.896 529.753 968.283C528.443 969.559 527.11 970.792 525.759 971.992ZM405.948 921.202C405.945 916.661 406.603 912.223 407.806 907.956C420.427 916.779 433.539 923.886 446.886 929.11C432.671 930.97 419.402 931.265 406.92 930.171C406.302 927.234 405.949 924.236 405.948 921.202ZM504.568 921.205C504.571 926.298 503.607 931.408 501.866 936.334C486.658 936.146 471.745 934.037 457.285 929.625C472.852 923.911 488.051 916.872 502.902 908.738C503.949 912.729 504.565 916.892 504.568 921.205ZM489.624 955.677C489.392 955.908 489.137 956.107 488.903 956.334C478.242 950.004 468.124 942.327 458.145 932.954C472.015 937.005 486.273 938.951 500.781 939.213C498.23 945.21 494.46 950.842 489.624 955.677ZM453.054 949.309C453.713 957.186 454.306 964.194 455.073 970.503C444.134 970.448 433.636 966.161 425.16 959.289C432.71 952.59 441.645 943.443 451.625 933.035C452.175 938.833 452.633 944.261 453.054 949.309ZM455.935 949.068C455.53 944.23 455.093 939.047 454.576 933.524C464.991 943.506 475.542 951.669 486.674 958.362C478.384 965.487 468.223 969.73 457.965 970.37C457.197 964.089 456.604 957.052 455.935 949.068ZM456.57 926.808C466.701 912.401 476.475 897.674 485.949 882.697C493.38 888.634 499.057 896.657 502.09 905.883C487.266 914.037 472.098 921.091 456.57 926.808ZM454.288 925.025C454.463 907.329 454.932 889.626 455.723 871.916C466.106 872.021 475.714 875.36 483.628 880.959C474.166 895.924 464.405 910.635 454.288 925.025ZM451.396 925.095C442.2 911.317 433.987 896.671 426.621 881.338C434.355 875.775 443.495 872.502 452.827 872.017C452.039 889.714 451.57 907.409 451.396 925.095ZM449.091 926.85C435.305 921.572 421.752 914.27 408.732 905.085C411.138 898.233 415.032 891.915 420.35 886.598C421.593 885.355 422.903 884.194 424.258 883.096C431.645 898.416 439.878 913.061 449.091 926.85ZM421.682 933.734C430.339 933.734 439.395 933.068 448.843 931.759C439.063 941.95 430.314 950.882 422.961 957.378C415.754 950.862 410.3 942.425 407.69 933.163C412.252 933.53 416.907 933.734 421.682 933.734ZM455.257 973.405H455.283C455.337 973.405 455.391 973.397 455.445 973.397C456.767 983.132 458.65 991.096 462.101 997.814C442.346 997.378 420.75 988.519 402.69 974.141C409.116 971.672 415.372 967.665 422.968 961.197C432.062 968.713 443.427 973.398 455.257 973.405ZM458.337 973.241C469.457 972.501 480.431 967.767 489.273 959.9C500.128 966.142 511.244 970.848 523.122 974.246C505.577 988.928 485.048 997.307 465.373 997.785C461.671 991.19 459.706 983.236 458.337 973.241ZM504.943 936.349C506.581 931.408 507.462 926.297 507.459 921.202C507.456 916.38 506.743 911.731 505.511 907.295C523.71 897.142 541.385 885.381 558.571 872.452C560.951 880.756 562.201 889.264 562.165 897.743C562.12 908.548 559.856 919.512 555.637 930.096C538.559 934.018 521.588 936.277 504.943 936.349ZM504.645 904.468C501.362 894.822 495.346 886.447 487.504 880.255C499.927 860.513 511.851 840.357 523.339 819.886C525.981 822.032 528.547 824.316 531.017 826.744C543.535 839.042 552.665 853.846 557.693 869.496C540.505 882.477 522.833 894.283 504.645 904.468ZM485.183 878.518C476.854 872.658 466.762 869.165 455.865 869.032C456.968 845.27 458.624 821.504 460.666 797.754C461.154 797.736 461.64 797.693 462.129 797.682C482.579 797.248 503.439 804.589 521.031 818.092C509.538 838.586 497.608 858.761 485.183 878.518ZM452.965 869.119C443.15 869.573 433.521 872.928 425.347 878.689C416.529 859.999 408.925 840.335 402.288 820.033C418.202 807.536 437.511 799.328 457.752 797.899C455.716 821.627 454.065 845.372 452.965 869.119ZM422.983 880.446C421.359 881.728 419.782 883.078 418.306 884.554C412.884 889.976 408.862 896.381 406.294 903.327C392.953 893.59 379.849 881.646 367.31 867.764C373.605 850.169 385.149 834.201 399.881 821.964C406.536 842.198 414.154 861.801 422.983 880.446ZM404.626 932.875C407.237 942.95 413.043 952.153 420.793 959.25C412.988 965.861 406.684 969.749 400.107 972.002C385.166 959.423 372.95 943.017 366.658 924.517C378.588 928.676 391.169 931.544 404.626 932.875ZM462.067 1000.71C462.607 1000.72 463.148 1000.72 463.689 1000.72C463.71 1000.72 463.731 1000.72 463.753 1000.72C466.711 1005.5 470.637 1009.63 475.972 1013.33C474.745 1013.4 473.514 1013.49 472.295 1013.51C441.603 1014.11 408.899 1001.14 380.95 977.636C388.425 977.651 394.198 976.883 399.578 975.216C418.428 990.671 441.238 1000.25 462.067 1000.71ZM467.13 1000.62C487.529 999.702 508.618 990.646 526.489 975.172C536.536 977.852 547.21 979.582 558.883 980.502C534.881 998.697 507.074 1010.47 480.718 1012.99C474.735 1009.38 470.371 1005.37 467.13 1000.62ZM562.299 977.888C550.251 977.113 539.372 975.433 529.113 972.834C530.005 972.017 530.897 971.204 531.77 970.353C543.254 959.164 552.059 946.195 557.73 932.561C575.709 928.339 593.776 922.368 611.681 915.269C600.848 939.736 583.181 961.269 562.299 977.888ZM559.028 929.266C562.909 918.933 565.012 908.278 565.056 897.754C565.094 888.645 563.694 879.507 561.037 870.611C580.307 855.953 598.957 839.856 617.052 822.984C620.974 835.777 623.141 849.109 623.146 862.691C623.154 879.742 619.546 896.154 613.275 911.494C595.269 918.748 577.101 924.895 559.028 929.266ZM560.125 867.665C554.892 851.923 545.643 837.06 533.043 824.681C530.386 822.069 527.615 819.625 524.76 817.33C537.971 793.688 550.637 769.662 562.932 745.463C587.453 764.709 606.462 790.775 616.116 819.908C598.025 836.823 579.378 852.964 560.125 867.665ZM522.448 815.535C504.399 801.8 483.005 794.337 462.067 794.792C461.682 794.8 461.301 794.836 460.916 794.848C463.338 767.141 466.317 739.461 469.731 711.836C470.582 711.839 471.438 711.847 472.288 711.87C504.649 712.659 535.405 724.583 560.61 743.652C548.318 767.858 535.654 791.89 522.448 815.535ZM458.002 794.993C437.38 796.354 417.67 804.55 401.351 817.135C393.739 793.462 387.403 768.961 381.928 744.174C407.241 724 437.235 712.531 466.809 711.903C463.397 739.551 460.421 767.255 458.002 794.993ZM398.933 819.078C383.816 831.397 371.857 847.509 365.141 865.333C352.978 851.644 341.187 836.131 329.167 817.975C337.049 795.13 350.781 773.439 369.422 755.191C372.648 752.033 375.991 749.051 379.412 746.21C384.915 770.962 391.282 795.431 398.933 819.078ZM363.196 923.248C369.255 942.545 381.62 959.731 396.905 972.985C391.51 974.41 385.508 974.926 377.525 974.689C375.246 972.673 372.993 970.61 370.788 968.454C352.408 950.478 338.475 929.113 330.181 907.113C340.753 913.495 351.685 918.954 363.196 923.248ZM470.283 1016.42C470.972 1016.42 471.662 1016.42 472.352 1016.41C474.92 1016.36 477.513 1016.19 480.115 1015.96C483.04 1017.66 486.306 1019.28 489.988 1020.83C488.32 1020.86 486.652 1020.93 484.987 1020.91C442.513 1020.4 401.003 1003.62 366.787 976.971C370.442 977.254 373.596 977.443 376.413 977.545C404.841 1002.41 438.461 1016.42 470.283 1016.42ZM485.118 1015.42C511.638 1011.95 539.332 999.502 563.087 980.842C574.202 981.512 586.428 981.435 601.179 980.608C569.685 1004.28 533.337 1018.3 497.203 1020.55C492.658 1018.9 488.643 1017.21 485.118 1015.42ZM605.169 977.476C590.072 978.439 577.64 978.645 566.434 978.121C587.37 960.879 604.941 938.772 615.457 913.74C635.049 905.795 654.422 896.588 673.25 886.975C662.619 913.896 645.899 939.288 624.002 960.916C617.988 966.856 611.676 972.349 605.169 977.476ZM616.942 910.017C622.734 895.079 626.045 879.178 626.038 862.691C626.031 848.346 623.675 834.269 619.397 820.799C639.476 801.956 658.858 782.187 677.629 762.389C683.472 780.93 686.555 800.133 686.549 819.333C686.542 840.713 682.444 862.238 674.784 882.936C655.95 892.62 636.56 901.944 616.942 910.017ZM618.403 817.759C608.376 788.433 589.076 762.22 564.259 742.866C578.29 715.177 591.842 687.277 605.162 659.479C612.077 664.799 618.738 670.54 625.035 676.771C648.864 700.35 666.455 728.866 676.592 759.281C657.834 779.091 638.461 798.883 618.403 817.759ZM561.928 741.075C536.326 721.818 505.154 709.78 472.359 708.977C471.602 708.96 470.842 708.993 470.084 708.988C473.882 678.514 478.169 648.118 482.781 617.837C483.517 617.82 484.248 617.762 484.985 617.754C485.618 617.747 486.251 617.744 486.882 617.744C527.591 617.744 568.514 632.014 602.83 657.658C589.507 685.465 575.957 713.375 561.928 741.075ZM467.17 709C437.279 709.541 406.94 720.933 381.244 741.045C375.361 714.036 370.469 686.732 366.045 659.825C398.555 635.083 438.099 619.563 479.84 617.948C475.238 648.195 470.96 678.559 467.17 709ZM378.715 743.018C374.823 746.188 371.045 749.556 367.399 753.125C349.006 771.132 335.317 792.451 327.184 814.952C316.538 798.694 305.607 780.188 293.838 758.466C306.966 720.553 331.708 686.825 363.453 661.891C367.889 688.774 372.804 716.046 378.715 743.018ZM325.971 904.503C334.107 928.103 348.755 950.951 368.766 970.52C370.158 971.882 371.581 973.187 373.002 974.493C370.034 974.329 366.671 974.079 362.772 973.736C332.977 949.438 309.128 917.598 295.623 882.586C305.57 890.575 315.615 897.961 325.971 904.503ZM398.191 1000.92C395.32 999.767 392.47 998.576 389.635 997.355C377.136 991.142 365.182 983.927 353.894 975.806L355.484 975.957C357.366 976.14 359.166 976.314 360.924 976.476C372.696 985.97 385.213 994.137 398.191 1000.92ZM357.664 981.399C354.368 979.402 351.098 977.352 347.871 975.221C348.27 975.262 348.702 975.303 349.095 975.346C351.909 977.436 354.779 979.429 357.664 981.399ZM647.177 976.701C654.705 975.973 662.382 975.276 670.182 974.609C671.984 974.451 673.757 974.344 675.546 974.21C635.659 1000.22 589.667 1017.33 540.755 1022.42C578.619 1015.68 615.223 999.992 647.177 976.701ZM505.208 1023.23C504.852 1023.12 504.498 1023.01 504.148 1022.9C539.872 1019.24 575.485 1004.34 606.249 980.303C617.973 979.504 629.852 978.366 642.413 977.157C602.983 1005 555.652 1021.96 505.208 1023.23ZM646.604 973.852L642.362 974.258C631.256 975.327 620.699 976.329 610.318 977.102C615.724 972.673 620.976 967.967 626.033 962.973C649.041 940.25 666.418 913.417 677.118 884.99C694.689 875.934 711.766 866.584 728.059 857.657C731.169 855.953 734.218 854.287 737.259 852.624C720.027 901.191 688.064 943.474 647.043 973.81C646.897 973.824 646.748 973.837 646.604 973.852ZM726.671 855.122C711.246 863.574 695.12 872.406 678.537 881.004C685.631 860.888 689.433 840.047 689.44 819.333C689.445 799.312 686.147 779.289 679.898 759.999C692.365 746.815 704.559 733.637 716.501 720.729C724.332 712.265 731.956 704.045 739.499 695.967C747.318 720.071 751.42 745.291 751.411 770.973C751.401 797.903 746.898 824.002 738.657 848.565C734.719 850.714 730.727 852.9 726.671 855.122ZM714.378 718.766C702.774 731.309 690.929 744.108 678.83 756.918C668.476 726.622 650.841 698.239 627.067 674.715C620.537 668.254 613.621 662.309 606.438 656.815C611.899 645.408 617.33 634.016 622.735 622.668C631.092 605.123 639.605 587.268 648.2 569.448C658.015 576.793 667.373 584.855 676.155 593.617C704.977 622.375 726.036 656.28 738.445 692.859C730.556 701.298 722.577 709.904 714.378 718.766ZM480.279 615.04C438.252 616.544 398.414 631.98 365.528 656.664C363.016 641.291 360.644 626.055 358.32 611.1C356.037 596.414 353.812 582.12 351.537 568.154C393.907 536.675 443.91 519.413 495.841 518.72C490.468 550.651 485.21 582.778 480.279 615.04ZM355.464 611.544C357.865 627.001 360.319 642.757 362.924 658.656C330.852 683.484 305.708 717.139 292.001 755.049C282.54 737.495 273.617 720.071 264.993 703.196L259.875 693.194C272.386 656.453 293.476 622.155 321.823 593.804C330.415 585.211 339.483 577.337 348.923 570.14C351.112 583.626 353.262 597.384 355.464 611.544ZM290.852 878.705C301.382 908.978 319.643 937.694 344.375 961.822C348.456 965.801 352.682 969.565 356.988 973.197C356.571 973.157 356.188 973.121 355.763 973.081L349.681 972.501C349.575 972.488 349.459 972.477 349.352 972.465C309.212 942.249 277.945 900.52 260.946 852.714C271.006 861.76 280.901 870.509 290.852 878.705ZM320.376 950.649C328.094 958.315 336.282 965.398 344.789 971.991C344.134 971.923 343.485 971.857 342.816 971.791C328.226 961.72 314.385 950.28 301.467 937.512C268.957 905.379 244.252 866.314 228.864 823.934C232.508 827.134 236.151 830.376 239.805 833.654C243.774 837.213 247.692 840.753 251.574 844.261C253.259 845.784 254.938 847.301 256.612 848.81C269.171 886.403 290.742 921.215 320.376 950.649ZM682.302 973.718C693.034 973.004 703.063 972.661 712.83 972.626C657.539 1007.71 594.523 1026.39 529.554 1026.29C584.248 1022.8 636.687 1004.63 682.302 973.718ZM680.423 970.95C676.949 971.179 673.458 971.423 669.936 971.729C663.731 972.258 657.63 972.814 651.592 973.383C660.679 966.466 669.398 958.977 677.603 950.848C706.868 921.85 728.281 887.609 740.947 850.612C751.908 844.635 762.422 838.975 772.42 833.865L785.7 827.065C790.084 824.818 794.505 822.553 798.942 820.285C776.51 881.453 734.301 934.38 680.423 970.95ZM770.733 659.037C760.809 669.123 750.832 679.626 740.685 690.459C728.07 654.026 706.953 620.263 678.197 591.571C669.184 582.578 659.578 574.304 649.49 566.789C656.734 551.788 664.029 536.819 671.354 522.119L675.557 513.679C680.797 503.163 686.057 492.609 691.33 482.042C740.612 519.799 779.545 571.348 800.282 628.811C790.377 638.976 780.532 649.076 770.733 659.037ZM672.97 512.39L668.765 520.829C661.508 535.397 654.28 550.227 647.101 565.088C603.654 533.466 551.563 515.794 499.275 515.752C502.182 498.512 505.113 481.319 508.034 464.2C510.661 448.816 513.291 433.366 515.909 417.88C578.609 419.18 638.978 442.661 688.978 480.28C683.627 491.006 678.287 501.717 672.97 512.39ZM505.184 463.713C502.232 481.015 499.269 498.39 496.332 515.817C444.083 516.403 393.765 533.584 351.021 564.971C348.565 550.003 346.041 535.429 343.308 521.201C340.615 507.17 337.909 493.087 335.16 478.977C387.697 439.142 450.683 417.168 512.987 417.821C510.394 433.163 507.787 448.47 505.184 463.713ZM340.469 521.746C343.281 536.391 345.872 551.43 348.399 566.873C338.408 574.4 328.84 582.698 319.779 591.761C291.796 619.749 270.794 653.47 258.036 689.632C252.867 679.631 247.42 669.189 242.055 659.356C237.451 650.937 232.807 642.363 228.097 633.67L225.931 629.676C241.325 584.246 267.871 541.612 303.683 506.234C312.87 497.157 322.536 488.713 332.594 480.925C335.248 494.565 337.865 508.18 340.469 521.746ZM225.555 635.048C230.265 643.742 234.913 652.321 239.516 660.743C245.308 671.356 251.215 682.712 256.744 693.425C248.333 718.522 243.836 744.716 243.85 770.974C243.862 795.689 247.606 819.978 254.778 843.259C254.355 842.877 253.936 842.498 253.512 842.115C249.628 838.607 245.708 835.064 241.737 831.502C236.792 827.066 231.864 822.702 226.933 818.413C216.246 787.137 210.587 754.165 210.584 720.912C210.583 691.427 215.442 661.902 224.675 633.423L225.555 635.048ZM224.46 820.094C239.843 864.732 265.39 905.916 299.436 939.569C304.179 944.257 309.056 948.754 314.036 953.088C261.902 913.29 221.06 859.549 197.25 797.615C206.419 804.736 215.448 812.268 224.46 820.094ZM360.921 986.696C383.237 999.673 407.008 1009.65 431.754 1016.42C446.055 1020.56 460.642 1023.48 475.355 1024.97C487.714 1026.88 500.276 1028.15 513.007 1028.76C517.115 1030.15 520.822 1031.56 524.138 1033.03C453.84 1029.74 388.065 1008.55 331.358 973.914C333.986 974.003 336.777 974.173 339.78 974.428C346.675 978.747 353.724 982.841 360.921 986.696ZM522.046 1029.08C523.962 1029.12 525.877 1029.18 527.8 1029.19C528.606 1029.19 529.403 1029.2 530.209 1029.2C596.987 1029.2 661.69 1009.46 718.158 972.625C728.63 972.697 738.836 973.219 748.612 974.143C685.59 1013.32 614.054 1034.05 540.524 1033.5C537.351 1033.48 534.187 1033.41 531.032 1033.31C528.328 1031.85 525.349 1030.44 522.046 1029.08ZM717.299 969.723C707.52 969.653 697.503 969.937 686.891 970.55C701.482 960.283 715.347 948.7 728.325 935.851C762.687 901.828 788.023 861.647 803.185 818.117C821.855 808.599 840.99 799.017 860.492 789.92C842.487 839.037 813.459 884.714 775.191 922.723C757.197 940.595 737.793 956.287 717.299 969.723ZM804.525 814.194C814.462 784.328 819.644 752.94 819.658 720.912C819.671 690.146 814.171 659.213 803.745 629.402C823.238 609.399 842.884 589.251 862.869 569.404C875.151 603.363 881.646 638.2 881.657 672.452C881.67 711.022 874.805 749.477 861.85 786.102C842.343 795.141 823.207 804.685 804.525 814.194ZM802.658 626.374C787 583.11 760.948 542.313 726.212 507.965C715.647 497.52 704.476 487.871 692.827 479.041C706.65 451.344 720.606 423.511 734.774 395.652C747.139 405.404 759.119 415.985 770.602 427.389C812.115 468.621 843.201 516.521 861.776 566.418C841.789 586.245 822.146 606.377 802.658 626.374ZM690.481 477.269C638.497 438.574 577.124 416.363 516.396 415.001C521.787 383.057 527.088 350.922 532.065 318.637C600.274 319.287 671.072 346.15 732.452 393.841C718.275 421.712 704.311 449.558 690.481 477.269ZM513.476 414.93C450.828 414.22 387.489 436.062 334.544 475.823C329.387 449.414 324.057 422.912 318.317 396.445C378.745 348.887 452.405 319.093 527.819 318.605C528.261 318.601 528.704 318.601 529.146 318.601C524.169 350.874 518.866 382.998 513.476 414.93ZM331.977 477.77C321.415 485.87 311.27 494.674 301.651 504.177C266.185 539.214 239.705 581.306 224.047 626.208C214.094 607.863 203.408 588.427 192.18 569.285C215.553 503.247 259.843 443.196 315.787 398.435C321.509 424.888 326.829 451.377 331.977 477.77ZM282.41 424.571C240.236 466.008 208.792 514.787 190.264 566.022C178.619 546.203 167.61 528.841 156.694 513.09C183.336 438.686 233.746 370.215 296.989 318.633C303.593 344.172 309.584 369.876 315.181 395.621C303.869 404.597 292.914 414.251 282.41 424.571ZM192.867 794.249C219.802 867.207 270.102 929.207 334.654 971.171C331.808 971.011 329.14 970.938 326.629 970.949C253.098 924.651 195.305 855.625 163.398 773.999C173.497 780.181 183.273 786.976 192.867 794.249ZM530.601 1036.2C537.264 1039.86 542.039 1043.93 545.545 1048.82C455.064 1047.74 371.679 1021.5 301.904 976.596C308.878 974.898 316.289 973.977 324.454 973.867C385.836 1012.35 456.568 1033.97 530.601 1036.2ZM536.029 1036.3C537.522 1036.33 539.009 1036.38 540.505 1036.39C541.382 1036.39 542.245 1036.39 543.12 1036.39C617.595 1036.39 689.851 1014.87 753.327 974.606C765.536 975.937 777.019 977.935 788.3 980.638C717.16 1025.1 635.747 1048.9 551.348 1048.89H550.828C550.16 1048.89 549.497 1048.87 548.828 1048.87C545.732 1044.11 541.609 1040 536.029 1036.3ZM752.668 971.62C743.003 970.588 732.848 969.996 722.443 969.807C741.79 956.792 760.139 941.748 777.229 924.774C816.495 885.773 846.094 838.75 864.165 788.216C882.61 779.693 901.382 771.651 920.411 764.547C899.811 820.041 866.858 871.671 823.534 914.739C801.593 936.55 777.828 955.569 752.668 971.62ZM865.521 784.397C877.98 748.268 884.56 710.414 884.548 672.452C884.537 637.439 877.834 601.83 865.139 567.157C883.982 548.492 903.133 530.116 922.754 512.401C937.362 551.105 945.087 590.508 945.118 628.895C945.156 673.724 937.036 718.441 921.702 760.967C902.696 767.98 883.944 775.942 865.521 784.397ZM864.018 564.196C845.246 514.346 814.111 466.529 772.639 425.338C760.939 413.716 748.72 402.943 736.107 393.026C749.206 367.293 762.485 341.55 776.018 315.896C789.896 326.975 803.349 338.935 816.229 351.735C864.107 399.318 900.028 453.642 921.632 509.519C902.008 527.207 882.855 545.555 864.018 564.196ZM733.785 391.214C672.129 343.447 601.05 316.51 532.502 315.753C537.162 285.391 541.507 254.906 545.372 224.341C620.462 225.31 702.592 258.006 773.709 314.082C760.171 339.737 746.886 365.48 733.785 391.214ZM529.585 315.709H529.528C528.953 315.709 528.376 315.71 527.8 315.714C455.606 316.18 381.075 344.159 317.71 393.629C312.097 367.88 306.084 342.172 299.455 316.626C369.352 260.396 454.562 224.753 540.523 224.29C540.999 224.287 541.463 224.286 541.94 224.286C542.114 224.286 542.29 224.294 542.465 224.294C538.596 254.857 534.248 285.345 529.585 315.709ZM540.508 221.399C458.742 221.84 372.782 255.347 298.904 314.532C292.699 290.749 285.953 267.109 278.486 243.715C361.286 176.914 459.717 138.176 550.488 138.176H550.826C551.168 138.176 551.514 138.193 551.857 138.194C549.358 165.977 546.302 193.73 542.824 221.427C542.053 221.422 541.277 221.395 540.508 221.399ZM296.436 316.518C284.913 325.872 273.68 335.833 262.822 346.416C213.115 394.857 176.216 451.381 154.713 510.248C142.668 492.955 130.857 477.738 118.692 463.859C141.9 398.731 181.858 336.014 235.743 282.117C248.655 269.202 262.148 257.06 276.076 245.689C283.518 269.086 290.249 292.728 296.436 316.518ZM158.599 771.111C178.926 825.704 210.991 875.606 253.543 917.669C274.073 937.962 296.422 955.819 320.202 971.14C312.473 971.508 305.344 972.593 298.617 974.449C218.92 922.169 157.346 845.407 123.787 754.038C135.93 758.851 147.479 764.591 158.599 771.111ZM547.437 1051.74C551.156 1058.13 553.165 1065.88 554.599 1075.76C447.394 1075.09 350.077 1044.35 270.233 991.079C279.466 984.787 288.121 980.537 297.278 977.808C370.227 1025.24 456.419 1051.01 547.437 1051.74ZM791.768 978.479C780.554 975.666 769.154 973.612 757.129 972.163C781.38 956.406 804.326 937.909 825.573 916.788C869.8 872.823 903.286 819.989 923.968 763.219C942.228 756.528 960.719 750.744 979.378 746.261C956.805 808.29 920.389 865.513 871.668 914.222C847.036 938.85 820.241 960.329 791.768 978.479ZM925.221 759.693C940.146 717.528 948.046 673.267 948.009 628.892C947.977 589.814 940.043 549.701 925.055 510.336C943.22 494.014 961.795 478.276 980.901 463.413C997.407 506.701 1006.15 550.705 1006.19 593.537C1006.23 645.03 997.433 695.395 980.531 742.993C961.9 747.38 943.446 753.093 925.221 759.693ZM923.926 507.461C902.132 451.562 866.139 397.261 818.267 349.686C805.181 336.68 791.505 324.542 777.394 313.308C789.834 289.759 802.482 266.288 815.394 242.975C830.086 254.736 844.372 267.355 858.11 280.806C913.56 335.097 955.064 397.025 979.816 460.588C960.69 475.434 942.102 491.157 923.926 507.461ZM775.083 311.495C703.659 255.326 621.19 222.587 545.732 221.46C549.206 193.772 552.258 166.024 554.754 138.245C638.972 139.467 732.157 177.03 813.104 241.139C800.182 264.461 787.529 287.939 775.083 311.495ZM555.007 135.359C557.121 111.452 558.842 87.5269 560.02 63.602C655.631 64.2816 760.295 105.391 850.219 176.009C838.088 196.705 826.192 217.574 814.528 238.586C733.237 174.321 639.662 136.649 555.007 135.359ZM557.288 60.6797C453.373 60.7568 345.743 101.913 254.102 175.288C246.716 156.692 238.756 138.317 230.083 120.23L229.066 120.718C326.054 46.0581 442.79 4.13727 558.952 3.77749C558.752 22.7343 558.19 41.7049 557.288 60.6797ZM557.127 63.5731C555.948 87.4883 554.225 111.406 552.109 135.308C551.683 135.305 551.253 135.287 550.828 135.286H550.489C459.397 135.286 360.669 173.984 277.54 240.756C270.74 219.643 263.34 198.736 255.222 178.101C346.455 104.821 453.649 63.693 557.127 63.5731ZM275.14 242.721C260.818 254.361 246.954 266.814 233.699 280.073C179.926 333.857 139.929 396.391 116.499 461.384C103.886 447.192 90.8127 434.408 77.5959 423.351C103.303 350.598 147.42 280.951 206.842 221.515C221.622 206.731 237.01 192.903 252.876 180.024C260.975 200.669 268.358 221.591 275.14 242.721ZM119.668 752.437C142.135 815.647 178.16 872.935 226.245 920.554C247.178 941.284 269.924 959.718 294.151 975.761C285.239 978.682 276.731 983.041 267.663 989.325C180.52 930.372 114.496 844.453 79.5644 741.545C93.7337 744.02 107.037 747.71 119.668 752.437ZM554.997 1078.65C555.82 1084.99 556.471 1092.16 557.208 1100.35C557.685 1105.64 558.202 1111.34 558.825 1117.48C436.635 1117.16 326.077 1081.34 236.352 1019.26C248.611 1008.08 258.356 999.446 268.112 992.545C350.723 1047.98 449.77 1078.06 554.997 1078.65ZM560.086 1100.09C559.368 1092.12 558.724 1085.04 557.896 1078.69H558.111C657.557 1078.68 752.831 1049.98 834.635 996.518C849.176 1003.09 863.322 1011.09 877.776 1020.91C788.613 1081.81 680.059 1117.23 561.731 1117.48C561.094 1111.24 560.57 1105.45 560.086 1100.09ZM834.377 993.236C821.741 987.565 808.966 983.075 795.518 979.495C823.348 961.535 849.565 940.407 873.712 916.267C923.202 866.788 960.068 808.574 982.731 745.466C1000.19 741.425 1017.78 738.575 1035.47 737.21C1010.65 807.777 970.055 872.549 915.422 927.167C890.387 952.195 863.223 974.256 834.377 993.236ZM983.854 742.247C1000.47 694.848 1009.12 644.746 1009.08 593.534C1009.04 550.078 1000.13 505.433 983.288 461.546C1000.49 448.261 1018.14 435.715 1036.3 424.086C1054.34 472.349 1063.88 521.579 1063.9 569.681C1063.92 626.506 1054.52 681.93 1036.5 734.228C1018.83 735.519 1001.27 738.296 983.854 742.247ZM982.184 458.74C957.246 395.075 915.64 333.089 860.133 278.74C846.207 265.105 831.722 252.317 816.819 240.411C828.488 219.386 840.39 198.507 852.521 177.798C869.53 191.288 886.002 205.832 901.772 221.363C962.664 281.335 1008.2 350.229 1035.27 421.314C1017.08 432.936 999.406 445.469 982.184 458.74ZM170.937 171.779C188.884 153.799 207.855 137.142 227.636 121.819C236.348 140.01 244.343 158.495 251.754 177.208C235.561 190.31 219.864 204.398 204.796 219.471C145.344 278.939 101.121 348.591 75.2194 421.389C61.3685 410.029 46.9675 400.211 32.3681 392.174C60.2202 311.36 107.506 235.327 170.937 171.779ZM31.4376 394.967C46.0136 403.03 60.3911 412.881 74.2117 424.294C57.5391 472.107 48.7416 521.228 48.7802 569.682C48.8257 628.313 57.9884 684.964 75.5061 737.934C61.1066 735.72 45.8206 734.738 29.425 735.211C12.6076 680.726 3.56755 622.153 3.55376 560.628C3.54136 504.839 13.1852 448.866 31.4376 394.967ZM30.3197 738.087C46.7732 737.665 62.1142 738.708 76.5414 741.028C101.114 813.773 141.53 879.462 196.028 933.549C217.511 954.869 240.791 973.98 265.555 990.825C255.83 997.804 246.105 1006.45 233.897 1017.58C138.29 950.638 66.6839 853.691 30.3197 738.087ZM880.336 1019.15C866.154 1009.45 851.76 1001.23 837.49 994.654C865.933 975.793 892.732 953.938 917.466 929.211C972.72 873.971 1013.69 808.403 1038.61 736.967C1055.49 735.837 1072.44 736.088 1089.43 738.032C1051.72 853.835 977.775 951.782 880.336 1019.15ZM1090.33 735.215C1073.37 733.239 1056.46 732.93 1039.64 733.987C1057.5 681.737 1066.81 626.402 1066.79 569.681C1066.77 521.041 1057.1 471.263 1038.8 422.489C1054.73 412.393 1071.06 403.03 1087.87 394.527C1107.14 448.878 1117.31 505.043 1117.3 560.628C1117.28 621.878 1107.82 680.508 1090.33 735.215Z" fill="url(#paint0_linear_27_23)" fill-opacity="0.3"/>
<defs>
<linearGradient id="paint0_linear_27_23" x1="560.425" y1="0.86615" x2="560.425" y2="1120.39" gradientUnits="userSpaceOnUse">
<stop stop-color="#FF824C"/>
<stop offset="1" stop-color="#F58F64"/>
</linearGradient>
</defs>
</svg>
